<mxfile host="app.diagrams.net" modified="2023-11-21T21:00:42.989Z" agent="Mozilla/5.0 (Windows NT 10.0; Win64; x64; rv:109.0) Gecko/20100101 Firefox/119.0" etag="e4NJNamsT2jeakxCgs8g" version="22.1.3" type="github">
  <diagram id="R2lEEEUBdFMjLlhIrx00" name="Page-1">
    <mxGraphModel dx="3253" dy="2414" grid="1" gridSize="10" guides="1" tooltips="1" connect="1" arrows="1" fold="1" page="1" pageScale="1" pageWidth="850" pageHeight="1100" math="0" shadow="0" extFonts="Permanent Marker^https://fonts.googleapis.com/css?family=Permanent+Marker">
      <root>
        <mxCell id="0" />
        <mxCell id="1" parent="0" />
        <mxCell id="NVw97xkFPj5Z4CZvwTf5-2" value="Controller" style="swimlane;whiteSpace=wrap;html=1;" vertex="1" parent="1">
          <mxGeometry x="200" y="320" width="200" height="220" as="geometry" />
        </mxCell>
        <mxCell id="NVw97xkFPj5Z4CZvwTf5-16" value="USB" style="rounded=0;whiteSpace=wrap;html=1;" vertex="1" parent="NVw97xkFPj5Z4CZvwTf5-2">
          <mxGeometry x="40" y="50" width="120" height="20" as="geometry" />
        </mxCell>
        <mxCell id="NVw97xkFPj5Z4CZvwTf5-17" value="GPIO" style="rounded=0;whiteSpace=wrap;html=1;" vertex="1" parent="NVw97xkFPj5Z4CZvwTf5-2">
          <mxGeometry x="40" y="90" width="120" height="20" as="geometry" />
        </mxCell>
        <mxCell id="NVw97xkFPj5Z4CZvwTf5-19" value="RJ-45 (LAN)" style="rounded=0;whiteSpace=wrap;html=1;" vertex="1" parent="NVw97xkFPj5Z4CZvwTf5-2">
          <mxGeometry x="40" y="130" width="120" height="20" as="geometry" />
        </mxCell>
        <mxCell id="NVw97xkFPj5Z4CZvwTf5-34" value="Power" style="rounded=0;whiteSpace=wrap;html=1;" vertex="1" parent="NVw97xkFPj5Z4CZvwTf5-2">
          <mxGeometry x="40" y="170" width="120" height="20" as="geometry" />
        </mxCell>
        <mxCell id="NVw97xkFPj5Z4CZvwTf5-27" style="edgeStyle=orthogonalEdgeStyle;rounded=0;orthogonalLoop=1;jettySize=auto;html=1;entryX=0;entryY=0.5;entryDx=0;entryDy=0;" edge="1" parent="1" source="NVw97xkFPj5Z4CZvwTf5-9" target="NVw97xkFPj5Z4CZvwTf5-23">
          <mxGeometry relative="1" as="geometry" />
        </mxCell>
        <mxCell id="NVw97xkFPj5Z4CZvwTf5-9" value="Physical switcher" style="rounded=0;whiteSpace=wrap;html=1;" vertex="1" parent="1">
          <mxGeometry x="-160" y="400" width="120" height="40" as="geometry" />
        </mxCell>
        <mxCell id="NVw97xkFPj5Z4CZvwTf5-29" style="edgeStyle=orthogonalEdgeStyle;rounded=0;orthogonalLoop=1;jettySize=auto;html=1;" edge="1" parent="1" source="NVw97xkFPj5Z4CZvwTf5-12" target="NVw97xkFPj5Z4CZvwTf5-19">
          <mxGeometry relative="1" as="geometry" />
        </mxCell>
        <mxCell id="NVw97xkFPj5Z4CZvwTf5-12" value="Router" style="rounded=0;whiteSpace=wrap;html=1;" vertex="1" parent="1">
          <mxGeometry x="40" y="440" width="120" height="40" as="geometry" />
        </mxCell>
        <mxCell id="NVw97xkFPj5Z4CZvwTf5-44" value="" style="edgeStyle=orthogonalEdgeStyle;rounded=0;orthogonalLoop=1;jettySize=auto;html=1;" edge="1" parent="1" source="NVw97xkFPj5Z4CZvwTf5-14" target="NVw97xkFPj5Z4CZvwTf5-43">
          <mxGeometry relative="1" as="geometry" />
        </mxCell>
        <mxCell id="NVw97xkFPj5Z4CZvwTf5-14" value="Relays" style="rounded=0;whiteSpace=wrap;html=1;" vertex="1" parent="1">
          <mxGeometry x="680" y="400" width="120" height="40" as="geometry" />
        </mxCell>
        <mxCell id="NVw97xkFPj5Z4CZvwTf5-28" style="edgeStyle=orthogonalEdgeStyle;rounded=0;orthogonalLoop=1;jettySize=auto;html=1;" edge="1" parent="1" source="NVw97xkFPj5Z4CZvwTf5-23" target="NVw97xkFPj5Z4CZvwTf5-16">
          <mxGeometry relative="1" as="geometry" />
        </mxCell>
        <mxCell id="NVw97xkFPj5Z4CZvwTf5-23" value="???" style="rounded=0;whiteSpace=wrap;html=1;" vertex="1" parent="1">
          <mxGeometry x="40" y="360" width="120" height="40" as="geometry" />
        </mxCell>
        <mxCell id="NVw97xkFPj5Z4CZvwTf5-26" style="edgeStyle=orthogonalEdgeStyle;rounded=0;orthogonalLoop=1;jettySize=auto;html=1;entryX=0;entryY=0.5;entryDx=0;entryDy=0;" edge="1" parent="1" source="NVw97xkFPj5Z4CZvwTf5-25" target="NVw97xkFPj5Z4CZvwTf5-23">
          <mxGeometry relative="1" as="geometry" />
        </mxCell>
        <mxCell id="NVw97xkFPj5Z4CZvwTf5-25" value="Sensor" style="rounded=0;whiteSpace=wrap;html=1;" vertex="1" parent="1">
          <mxGeometry x="-160" y="320" width="120" height="40" as="geometry" />
        </mxCell>
        <mxCell id="NVw97xkFPj5Z4CZvwTf5-32" style="edgeStyle=orthogonalEdgeStyle;rounded=0;orthogonalLoop=1;jettySize=auto;html=1;entryX=0;entryY=0.5;entryDx=0;entryDy=0;" edge="1" parent="1" source="NVw97xkFPj5Z4CZvwTf5-39" target="NVw97xkFPj5Z4CZvwTf5-14">
          <mxGeometry relative="1" as="geometry" />
        </mxCell>
        <mxCell id="NVw97xkFPj5Z4CZvwTf5-30" value="???" style="rounded=0;whiteSpace=wrap;html=1;" vertex="1" parent="1">
          <mxGeometry x="440" y="400" width="80" height="40" as="geometry" />
        </mxCell>
        <mxCell id="NVw97xkFPj5Z4CZvwTf5-31" style="edgeStyle=orthogonalEdgeStyle;rounded=0;orthogonalLoop=1;jettySize=auto;html=1;entryX=0;entryY=0.5;entryDx=0;entryDy=0;" edge="1" parent="1" source="NVw97xkFPj5Z4CZvwTf5-17" target="NVw97xkFPj5Z4CZvwTf5-30">
          <mxGeometry relative="1" as="geometry" />
        </mxCell>
        <mxCell id="NVw97xkFPj5Z4CZvwTf5-36" style="edgeStyle=orthogonalEdgeStyle;rounded=0;orthogonalLoop=1;jettySize=auto;html=1;entryX=0.5;entryY=1;entryDx=0;entryDy=0;" edge="1" parent="1" source="NVw97xkFPj5Z4CZvwTf5-35" target="NVw97xkFPj5Z4CZvwTf5-34">
          <mxGeometry relative="1" as="geometry" />
        </mxCell>
        <mxCell id="NVw97xkFPj5Z4CZvwTf5-37" value="5v" style="edgeLabel;html=1;align=center;verticalAlign=middle;resizable=0;points=[];spacingTop=3;spacing=7;spacingBottom=3;spacingLeft=3;spacingRight=3;" vertex="1" connectable="0" parent="NVw97xkFPj5Z4CZvwTf5-36">
          <mxGeometry x="-0.375" y="2" relative="1" as="geometry">
            <mxPoint x="-9" y="-2" as="offset" />
          </mxGeometry>
        </mxCell>
        <mxCell id="NVw97xkFPj5Z4CZvwTf5-41" style="edgeStyle=orthogonalEdgeStyle;rounded=0;orthogonalLoop=1;jettySize=auto;html=1;entryX=0.5;entryY=1;entryDx=0;entryDy=0;" edge="1" parent="1" source="NVw97xkFPj5Z4CZvwTf5-35" target="NVw97xkFPj5Z4CZvwTf5-14">
          <mxGeometry relative="1" as="geometry" />
        </mxCell>
        <mxCell id="NVw97xkFPj5Z4CZvwTf5-42" value="220v" style="edgeLabel;html=1;align=center;verticalAlign=middle;resizable=0;points=[];" vertex="1" connectable="0" parent="NVw97xkFPj5Z4CZvwTf5-41">
          <mxGeometry x="-0.09" y="2" relative="1" as="geometry">
            <mxPoint as="offset" />
          </mxGeometry>
        </mxCell>
        <mxCell id="NVw97xkFPj5Z4CZvwTf5-45" style="edgeStyle=orthogonalEdgeStyle;rounded=0;orthogonalLoop=1;jettySize=auto;html=1;entryX=0.5;entryY=1;entryDx=0;entryDy=0;" edge="1" parent="1" source="NVw97xkFPj5Z4CZvwTf5-35" target="NVw97xkFPj5Z4CZvwTf5-12">
          <mxGeometry relative="1" as="geometry" />
        </mxCell>
        <mxCell id="NVw97xkFPj5Z4CZvwTf5-35" value="" style="rounded=0;whiteSpace=wrap;html=1;" vertex="1" parent="1">
          <mxGeometry x="240" y="600" width="120" height="40" as="geometry" />
        </mxCell>
        <mxCell id="NVw97xkFPj5Z4CZvwTf5-40" value="" style="edgeStyle=orthogonalEdgeStyle;rounded=0;orthogonalLoop=1;jettySize=auto;html=1;entryX=0;entryY=0.5;entryDx=0;entryDy=0;" edge="1" parent="1" source="NVw97xkFPj5Z4CZvwTf5-30" target="NVw97xkFPj5Z4CZvwTf5-39">
          <mxGeometry relative="1" as="geometry">
            <mxPoint x="520" y="420" as="sourcePoint" />
            <mxPoint x="680" y="420" as="targetPoint" />
          </mxGeometry>
        </mxCell>
        <mxCell id="NVw97xkFPj5Z4CZvwTf5-39" value="Adapter ???" style="rounded=0;whiteSpace=wrap;html=1;" vertex="1" parent="1">
          <mxGeometry x="560" y="400" width="80" height="40" as="geometry" />
        </mxCell>
        <mxCell id="NVw97xkFPj5Z4CZvwTf5-43" value="Devices" style="whiteSpace=wrap;html=1;rounded=0;" vertex="1" parent="1">
          <mxGeometry x="680" y="270" width="120" height="60" as="geometry" />
        </mxCell>
        <mxCell id="NVw97xkFPj5Z4CZvwTf5-47" value="Linux OS" style="swimlane;whiteSpace=wrap;html=1;startSize=23;" vertex="1" parent="1">
          <mxGeometry x="-240" y="-450" width="880" height="610" as="geometry" />
        </mxCell>
        <mxCell id="NVw97xkFPj5Z4CZvwTf5-51" value="Drivers for usb reader " style="swimlane;whiteSpace=wrap;html=1;startSize=23;" vertex="1" parent="NVw97xkFPj5Z4CZvwTf5-47">
          <mxGeometry x="220" y="200" width="240" height="120" as="geometry" />
        </mxCell>
        <mxCell id="NVw97xkFPj5Z4CZvwTf5-53" value="HTTP Server" style="swimlane;whiteSpace=wrap;html=1;startSize=23;" vertex="1" parent="NVw97xkFPj5Z4CZvwTf5-47">
          <mxGeometry x="220" y="360" width="240" height="120" as="geometry" />
        </mxCell>
        <mxCell id="NVw97xkFPj5Z4CZvwTf5-55" value="Drivers for relay" style="swimlane;whiteSpace=wrap;html=1;startSize=23;" vertex="1" parent="NVw97xkFPj5Z4CZvwTf5-47">
          <mxGeometry x="580" y="200" width="240" height="120" as="geometry" />
        </mxCell>
        <mxCell id="NVw97xkFPj5Z4CZvwTf5-63" style="edgeStyle=orthogonalEdgeStyle;rounded=0;orthogonalLoop=1;jettySize=auto;html=1;entryX=0.5;entryY=0;entryDx=0;entryDy=0;exitX=0;exitY=0.5;exitDx=0;exitDy=0;" edge="1" parent="NVw97xkFPj5Z4CZvwTf5-47" source="NVw97xkFPj5Z4CZvwTf5-59" target="NVw97xkFPj5Z4CZvwTf5-51">
          <mxGeometry relative="1" as="geometry" />
        </mxCell>
        <mxCell id="NVw97xkFPj5Z4CZvwTf5-64" style="edgeStyle=orthogonalEdgeStyle;rounded=0;orthogonalLoop=1;jettySize=auto;html=1;exitX=1;exitY=0.5;exitDx=0;exitDy=0;" edge="1" parent="NVw97xkFPj5Z4CZvwTf5-47" source="NVw97xkFPj5Z4CZvwTf5-59" target="NVw97xkFPj5Z4CZvwTf5-55">
          <mxGeometry relative="1" as="geometry" />
        </mxCell>
        <mxCell id="NVw97xkFPj5Z4CZvwTf5-65" style="edgeStyle=orthogonalEdgeStyle;rounded=0;orthogonalLoop=1;jettySize=auto;html=1;entryX=0.5;entryY=0;entryDx=0;entryDy=0;" edge="1" parent="NVw97xkFPj5Z4CZvwTf5-47" target="NVw97xkFPj5Z4CZvwTf5-53">
          <mxGeometry relative="1" as="geometry">
            <mxPoint x="500" y="160" as="sourcePoint" />
            <Array as="points">
              <mxPoint x="500" y="340" />
              <mxPoint x="340" y="340" />
            </Array>
          </mxGeometry>
        </mxCell>
        <mxCell id="NVw97xkFPj5Z4CZvwTf5-59" value="Smart Home Application" style="swimlane;whiteSpace=wrap;html=1;startSize=23;" vertex="1" parent="NVw97xkFPj5Z4CZvwTf5-47">
          <mxGeometry x="400" y="40" width="220" height="120" as="geometry" />
        </mxCell>
        <mxCell id="NVw97xkFPj5Z4CZvwTf5-67" style="edgeStyle=orthogonalEdgeStyle;rounded=0;orthogonalLoop=1;jettySize=auto;html=1;entryX=1;entryY=0.5;entryDx=0;entryDy=0;" edge="1" parent="NVw97xkFPj5Z4CZvwTf5-47" source="NVw97xkFPj5Z4CZvwTf5-66" target="NVw97xkFPj5Z4CZvwTf5-53">
          <mxGeometry relative="1" as="geometry" />
        </mxCell>
        <mxCell id="NVw97xkFPj5Z4CZvwTf5-66" value="Web UI" style="swimlane;whiteSpace=wrap;html=1;startSize=23;" vertex="1" parent="NVw97xkFPj5Z4CZvwTf5-47">
          <mxGeometry x="580" y="360" width="240" height="120" as="geometry" />
        </mxCell>
        <mxCell id="NVw97xkFPj5Z4CZvwTf5-68" value="Data Base" style="swimlane;whiteSpace=wrap;html=1;startSize=23;" vertex="1" parent="NVw97xkFPj5Z4CZvwTf5-47">
          <mxGeometry x="40" y="50" width="220" height="120" as="geometry" />
        </mxCell>
        <mxCell id="NVw97xkFPj5Z4CZvwTf5-69" style="edgeStyle=orthogonalEdgeStyle;rounded=0;orthogonalLoop=1;jettySize=auto;html=1;entryX=0.5;entryY=0;entryDx=0;entryDy=0;dashed=1;endArrow=none;endFill=0;" edge="1" parent="1" source="NVw97xkFPj5Z4CZvwTf5-51" target="NVw97xkFPj5Z4CZvwTf5-23">
          <mxGeometry relative="1" as="geometry">
            <Array as="points">
              <mxPoint x="-40" y="-190" />
              <mxPoint x="-40" y="250" />
              <mxPoint x="100" y="250" />
            </Array>
          </mxGeometry>
        </mxCell>
        <mxCell id="NVw97xkFPj5Z4CZvwTf5-70" style="edgeStyle=orthogonalEdgeStyle;rounded=0;orthogonalLoop=1;jettySize=auto;html=1;entryX=0;entryY=0;entryDx=0;entryDy=0;dashed=1;endArrow=none;endFill=0;" edge="1" parent="1" source="NVw97xkFPj5Z4CZvwTf5-55" target="NVw97xkFPj5Z4CZvwTf5-14">
          <mxGeometry relative="1" as="geometry">
            <Array as="points">
              <mxPoint x="620" y="-190" />
              <mxPoint x="620" y="290" />
              <mxPoint x="660" y="290" />
              <mxPoint x="660" y="400" />
            </Array>
          </mxGeometry>
        </mxCell>
        <mxCell id="NVw97xkFPj5Z4CZvwTf5-72" style="edgeStyle=orthogonalEdgeStyle;rounded=0;orthogonalLoop=1;jettySize=auto;html=1;entryX=0;entryY=0.5;entryDx=0;entryDy=0;dashed=1;endArrow=none;endFill=0;" edge="1" parent="1" source="NVw97xkFPj5Z4CZvwTf5-53" target="NVw97xkFPj5Z4CZvwTf5-12">
          <mxGeometry relative="1" as="geometry">
            <Array as="points">
              <mxPoint x="-300" y="-30" />
              <mxPoint x="-300" y="460" />
            </Array>
          </mxGeometry>
        </mxCell>
      </root>
    </mxGraphModel>
  </diagram>
</mxfile>
